<?xml version="1.0" encoding="utf-8"?>
<!-- Generator: Adobe Illustrator 26.5.0, SVG Export Plug-In . SVG Version: 6.00 Build 0)  -->
<svg version="1.1" id="Layer_1" xmlns="http://www.w3.org/2000/svg" xmlns:xlink="http://www.w3.org/1999/xlink" x="0px" y="0px"
	 viewBox="0 0 712 180" style="enable-background:new 0 0 712 180;" xml:space="preserve">
<style type="text/css">
	.st0{fill:#141E41;}
	.st1{fill-rule:evenodd;clip-rule:evenodd;fill:url(#SVGID_1_);}
</style>
<g>
	<g>
		<path class="st0" d="M212,127.8V52.4h14.3v31.1h28.1V52.4h14.3v75.4h-14.3V96.4h-28.1v31.3L212,127.8L212,127.8z"/>
		<path class="st0" d="M308.8,129.3c-5.3,0-10.1-1.1-14.4-3.2c-4.2-2.2-7.6-5.3-10-9.4s-3.7-9-3.7-14.7v-1.7
			c0-5.7,1.2-10.7,3.7-14.7c2.4-4.1,5.8-7.2,10-9.4c4.2-2.2,9-3.2,14.4-3.2c5.3,0,10.1,1.1,14.4,3.2c4.2,2.2,7.6,5.3,10,9.4
			s3.7,9,3.7,14.7v1.7c0,5.7-1.2,10.7-3.7,14.7c-2.4,4.1-5.8,7.2-10,9.4C318.9,128.2,314.1,129.3,308.8,129.3z M308.8,117.2
			c4.2,0,7.6-1.3,10.4-4c2.7-2.7,4.1-6.5,4.1-11.6v-1.1c0-5-1.4-8.9-4-11.6c-2.7-2.7-6.2-4-10.4-4s-7.6,1.3-10.4,4
			c-2.7,2.7-4.1,6.5-4.1,11.6v1.1c0,5,1.4,8.9,4.1,11.6C301.1,115.9,304.6,117.2,308.8,117.2L308.8,117.2z"/>
		<path class="st0" d="M349.4,127.8V52.4H363v75.4H349.4L349.4,127.8z"/>
		<path class="st0" d="M384.9,68.1c-2.4,0-4.5-0.8-6.2-2.4s-2.5-3.7-2.5-6.2s0.8-4.7,2.5-6.2c1.7-1.6,3.8-2.4,6.2-2.4
			c2.4,0,4.6,0.8,6.3,2.4c1.7,1.6,2.5,3.7,2.5,6.2s-0.8,4.7-2.5,6.2C389.5,67.3,387.4,68.1,384.9,68.1z M378.1,127.8V74.4h13.6v53.4
			H378.1L378.1,127.8z"/>
		<path class="st0" d="M429.1,129.3c-7,0-12.7-1.5-17.2-4.5s-7.2-7.3-8.1-12.9l12.5-3.2c0.5,2.5,1.4,4.5,2.5,5.9
			c1.2,1.4,2.7,2.5,4.4,3.1c1.8,0.6,3.7,0.9,5.8,0.9c3.2,0,5.5-0.6,7-1.7s2.3-2.5,2.3-4.1c0-1.7-0.7-2.9-2.2-3.8
			c-1.4-0.9-3.7-1.6-6.9-2.2l-3-0.5c-3.7-0.7-7.2-1.7-10.3-3c-3.1-1.3-5.6-3-7.5-5.2s-2.8-5.1-2.8-8.6c0-5.3,1.9-9.4,5.8-12.2
			c3.9-2.8,9-4.3,15.3-4.3c6,0,10.9,1.3,14.9,4s6.6,6.1,7.8,10.4l-12.6,3.9c-0.6-2.7-1.7-4.7-3.5-5.8c-1.8-1.1-3.9-1.7-6.5-1.7
			s-4.6,0.4-5.9,1.3c-1.4,0.9-2.1,2.1-2.1,3.7c0,1.7,0.7,3,2.2,3.8c1.4,0.8,3.4,1.5,5.8,1.9l3,0.5c4,0.7,7.7,1.7,11,2.9
			c3.3,1.2,5.9,2.9,7.8,5.1s2.9,5.2,2.9,8.9c0,5.6-2,9.9-6.1,13C441.4,127.7,435.9,129.3,429.1,129.3L429.1,129.3z"/>
		<path class="st0" d="M482.8,127.8c-3.5,0-6.4-1.1-8.6-3.3c-2.2-2.2-3.3-5.1-3.3-8.8V85.6h-13.4V74.4H471V57.8h13.6v16.6h14.7v11.2
			h-14.7v27.8c0,2.2,1,3.2,3,3.2H498v11.2L482.8,127.8L482.8,127.8z"/>
		<path class="st0" d="M518.4,68.1c-2.4,0-4.5-0.8-6.2-2.4s-2.5-3.7-2.5-6.2s0.8-4.7,2.5-6.2c1.7-1.6,3.8-2.4,6.2-2.4
			s4.6,0.8,6.3,2.4c1.7,1.6,2.5,3.7,2.5,6.2s-0.8,4.7-2.5,6.2C523,67.3,520.9,68.1,518.4,68.1z M511.6,127.8V74.4h13.6v53.4H511.6
			L511.6,127.8z"/>
		<path class="st0" d="M565.5,129.3c-5.2,0-9.9-1.1-14.1-3.2c-4.2-2.2-7.5-5.3-10-9.4c-2.4-4.1-3.7-9-3.7-14.9v-1.5
			c0-5.8,1.2-10.8,3.7-14.9c2.4-4.1,5.8-7.2,10-9.4c4.2-2.2,8.9-3.2,14.1-3.2s9.5,0.9,13.2,2.7c3.7,1.8,6.6,4.3,8.9,7.4
			c2.3,3.1,3.8,6.7,4.5,10.6l-13.2,2.8c-0.3-2.2-0.9-4.1-1.9-5.8c-1-1.7-2.4-3.1-4.3-4.1c-1.8-1-4.1-1.5-6.9-1.5
			c-2.7,0-5.2,0.6-7.4,1.8c-2.2,1.2-3.9,2.9-5.2,5.3c-1.3,2.3-1.9,5.2-1.9,8.6v1.1c0,3.4,0.6,6.2,1.9,8.6c1.3,2.3,3,4.1,5.2,5.3
			c2.2,1.2,4.7,1.8,7.4,1.8c4.1,0,7.2-1.1,9.3-3.2s3.5-4.9,4-8.3l13.2,3.1c-0.9,3.8-2.5,7.3-4.8,10.4s-5.2,5.6-8.9,7.4
			C575,128.4,570.6,129.3,565.5,129.3L565.5,129.3z"/>
		<path class="st0" d="M624.1,127.8L644,52.4h24.8l19.9,75.4H674l-4.1-16.6h-27l-4.1,16.6H624.1L624.1,127.8z M646.2,98.1h20.3
			l-9.2-36.7h-1.9L646.2,98.1L646.2,98.1z"/>
		<path class="st0" d="M697.7,127.8V52.4H712v75.4H697.7L697.7,127.8z"/>
	</g>
	<g>
		
			<linearGradient id="SVGID_1_" gradientUnits="userSpaceOnUse" x1="90" y1="842" x2="90" y2="662" gradientTransform="matrix(1 0 0 1 0 -662)">
			<stop  offset="0" style="stop-color:#AB5FCE"/>
			<stop  offset="1" style="stop-color:#36B1FE"/>
		</linearGradient>
		<path class="st1" d="M179.7,73.4c0.4-0.8,0.4-1.8,0-2.6l-9.8-17.4c-0.4-0.8-1.3-1.3-2.1-1.3h-18L121.5,1.3l0,0
			c-0.4-0.8-1.3-1.3-2.1-1.3H99.6c-0.9,0-1.7,0.5-2.1,1.3l-9.1,16.1H31.8c-0.9,0-1.7,0.5-2.1,1.2L19.5,36c-0.5,0.8-0.5,1.8,0,2.6
			l9.1,16.5L0.3,106c-0.4,0.8-0.4,1.7,0,2.5l9.5,17.8c0.4,0.8,1.3,1.3,2.2,1.3h18.3l28.3,51.1l0,0l0,0c0.4,0.8,1.3,1.3,2.1,1.3h19.7
			c0.9,0,1.7-0.5,2.1-1.3l9.1-16.4h56.6c0.9,0,1.7-0.5,2.1-1.2l10.1-17.5c0.5-0.8,0.5-1.8,0-2.6l-9.1-16.4L179.7,73.4L179.7,73.4
			L179.7,73.4z M166.3,57.3l6.9,12.3h-13.5l-7-12.3L166.3,57.3L166.3,57.3z M155.4,72.1l-8.5,14.7h-16.5l-8.3-14.7l8.1-14.8H147
			L155.4,72.1L155.4,72.1z M55.7,122.5l6.5-12h13.6l-6.5,12H55.7z M66.6,127.7l-5.2,9.7l-5.3-9.7H66.6z M124.3,52.2h-10.6l5.2-9.6
			L124.3,52.2z M123.2,39.9h10.9l-5.4,9.8L123.2,39.9z M124.4,57.3l-6.7,12.3h-13.6l6.7-12.3L124.4,57.3L124.4,57.3z M134.5,104.4
			H121l-6.8-12.3h13.4L134.5,104.4L134.5,104.4z M133.2,92.1h10.7l-5.3,9.5L133.2,92.1z M81,74.7h17.6l8.5,14.8l-8,15.8H81.5
			l-8.5-15L81,74.7L81,74.7L81,74.7z M70.1,85l-6.8-12.1l6.8-12.5l6.5,11.8L70.1,85L70.1,85z M110,94.8l6.7,12.1l-6.8,12.5l-0.5-0.9
			l-6-10.7L110,94.8L110,94.8z M111.3,86.9l-7-12.2h13.5l6.8,12.2H111.3z M98.5,69.6H83.9l6.9-12.3h14.1L98.5,69.6L98.5,69.6
			L98.5,69.6z M79.6,67L73,55l6.8-12.6l6.7,12.2L79.6,67z M70.2,49.9l-5.5-10h10.9L70.2,49.9z M67.3,55.2L59,70.3H42.8L34.3,55
			l8.6-15.1H59L67.3,55.2z M41.4,78.3l5.4,9.5H36.1L41.4,78.3L41.4,78.3z M31.7,85.3L26,75.5h11.2L31.7,85.3L31.7,85.3L31.7,85.3z
			 M45.5,75.5H59l6.8,12.3H52.5L45.5,75.5L45.5,75.5z M68.7,93l7,12.4H62.2L55.4,93H68.7z M81.6,110.5H96l-6.9,12H75.3L81.6,110.5
			L81.6,110.5z M100.4,113l4.6,8.2l2,3.5l-7,12.5l-6.6-11.9L100.4,113L100.4,113L100.4,113z M109.9,129.8l5.7,10h-11.3L109.9,129.8
			L109.9,129.8z M112.7,124.6l8.2-15.1h16.2l8.5,15.3l-8.6,15h-15.8L112.7,124.6L112.7,124.6z M148.3,94.6l5.7,9.8h-11.2L148.3,94.6
			L148.3,94.6z M143.9,52.2H133l5.4-9.7L143.9,52.2L143.9,52.2z M134.2,34.8h-13.8l-8-14.8l7-12.3L134.2,34.8L134.2,34.8L134.2,34.8
			z M101,5.1h14l-7,12.3H94L101,5.1L101,5.1L101,5.1z M91.2,22.5H108l8.1,14.8l-8.4,14.8H90.9l-8.1-14.8L91.2,22.5L91.2,22.5z
			 M85.4,22.5l-5.6,9.8l-5.6-9.8C74.2,22.5,85.4,22.5,85.4,22.5z M75.5,34.8H64.7l5.3-9.7L75.5,34.8z M65.7,22.5L59,34.8H42.9
			L36,22.5L65.7,22.5L65.7,22.5z M24.5,37.4L31.7,25l6.9,12.3l-7.2,12.6L24.5,37.4L24.5,37.4z M31.5,60.3l5.6,10H25.9L31.5,60.3z
			 M21.6,78l7.2,12.4l-8.4,14.2l-13.6,0.1L21.6,78L21.6,78z M13.5,122.6l-6.8-12.7l13.6-0.1l7.1,12.8L13.5,122.6L13.5,122.6z
			 M24.6,107.3L33.1,93h16.5l8.3,15L50,122.6H33L24.6,107.3L24.6,107.3z M36,127.7h11l-5.4,10L36,127.7z M51.5,129.8l5.7,10.2
			L46,140.2L51.5,129.8z M60.7,172.3l-14.8-26.8l13.6,0.2l7.9,14.1L60.7,172.3L60.7,172.3z M79,175H65l6.7-12.5H86L79,175L79,175z
			 M88.8,157.3H71.7l-7.9-14.1l8.5-15.6h16.5l8.2,14.6L88.8,157.3L88.8,157.3z M94.5,157.3l5.5-9.9l5.7,9.9H94.5L94.5,157.3z
			 M104.3,144.9h11.3l-5.6,9.9L104.3,144.9z M114.4,157.3l7-12.4h15.7l6.9,12.4H114.4z M155.5,142.4l-7.2,12.4l-6.9-12.4l7.1-12.5
			L155.5,142.4L155.5,142.4z M148.5,119.6l-5.6-10h11.2L148.5,119.6L148.5,119.6z M158.4,101.9l-7.2-12.4l8.5-14.7h13.6L158.4,101.9
			L158.4,101.9L158.4,101.9z"/>
	</g>
</g>
</svg>
